<svg xmlns="http://www.w3.org/2000/svg" width="100%" height="100%" viewBox="0 0 8 10" fill="none"
    preserveAspectRatio="xMidYMid meet" aria-hidden="true" role="img">
    <path
        d="M7.53104 5.21937C7.60077 5.28903 7.65609 5.37175 7.69384 5.4628C7.73158 5.55384 7.75101 5.65144 7.75101 5.75C7.75101 5.84856 7.73158 5.94616 7.69384 6.0372C7.65609 6.12825 7.60077 6.21097 7.53104 6.28063L4.53104 9.28063C4.46139 9.35036 4.37867 9.40568 4.28762 9.44342C4.19657 9.48116 4.09898 9.50059 4.00042 9.50059C3.90186 9.50059 3.80426 9.48116 3.71321 9.44342C3.62216 9.40568 3.53945 9.35036 3.46979 9.28063L0.469791 6.28063C0.329061 6.13989 0.25 5.94902 0.25 5.75C0.25 5.55098 0.329061 5.36011 0.469791 5.21937C0.610522 5.07864 0.801394 4.99958 1.00042 4.99958C1.19944 4.99958 1.39031 5.07864 1.53104 5.21937L3.25042 6.93969V1.25C3.25042 1.05109 3.32943 0.860323 3.47009 0.71967C3.61074 0.579018 3.8015 0.5 4.00042 0.5C4.19933 0.5 4.3901 0.579018 4.53075 0.71967C4.6714 0.860323 4.75042 1.05109 4.75042 1.25V6.93969L6.46979 5.21937C6.53945 5.14964 6.62216 5.09432 6.71321 5.05658C6.80426 5.01884 6.90186 4.99941 7.00042 4.99941C7.09898 4.99941 7.19657 5.01884 7.28762 5.05658C7.37867 5.09432 7.46139 5.14964 7.53104 5.21937Z"
        fill="currentColor"></path>
</svg>